<?xml version="1.0" standalone="no"?>
<!DOCTYPE svg PUBLIC "-//W3C//DTD SVG 20010904//EN"
 "http://www.w3.org/TR/2001/REC-SVG-20010904/DTD/svg10.dtd">
<svg version="1.0" xmlns="http://www.w3.org/2000/svg"
 width="320.000000pt" height="400.000000pt" viewBox="0 0 320.000000 400.000000"
 preserveAspectRatio="xMidYMid meet">

<g transform="translate(0.000000,400.000000) scale(0.100000,-0.100000)"
fill="#000000" stroke="none">
<path d="M1491 3349 c-94 -9 -261 -55 -346 -95 -79 -38 -139 -100 -162 -171
l-20 -58 -50 -2 c-92 -3 -141 -44 -198 -165 -32 -68 -38 -89 -42 -176 -3 -58
1 -167 10 -268 9 -93 21 -224 27 -292 6 -68 17 -139 25 -159 16 -37 19 -148 6
-193 -6 -21 -8 -18 -13 23 -9 79 -89 171 -128 147 -11 -7 -11 -11 1 -23 8 -7
24 -19 36 -26 12 -6 34 -32 49 -56 38 -66 48 -113 60 -287 5 -87 8 -98 24 -98
18 0 40 -49 40 -91 0 -18 34 -122 52 -159 44 -88 130 -197 297 -375 94 -100
146 -136 64 -45 -13 14 -23 31 -23 39 0 8 -3 12 -6 8 -7 -7 -54 46 -54 61 0 5
-11 18 -25 28 -14 10 -34 33 -45 49 -34 52 -45 69 -53 79 -86 116 -147 225
-147 264 0 13 -4 21 -9 18 -7 -5 -33 73 -37 109 0 6 -4 29 -8 52 -11 61 -14
213 -4 207 4 -3 8 2 8 10 0 9 -7 16 -15 16 -12 0 -13 4 -5 19 5 11 10 29 10
40 0 12 4 21 8 21 5 0 8 34 6 75 -1 41 1 75 6 75 4 0 8 -24 8 -52 3 -103 24
-200 54 -244 37 -55 76 -78 165 -98 126 -28 224 -18 290 31 60 44 135 176 155
276 11 50 18 62 52 88 53 38 92 38 142 -2 44 -35 52 -52 53 -129 3 -112 84
-279 151 -308 109 -48 230 -56 327 -22 55 19 123 72 123 96 0 6 7 17 15 24 12
10 15 7 21 -14 6 -26 -33 -234 -47 -250 -5 -6 -9 -22 -9 -37 0 -15 -6 -32 -14
-38 -8 -7 -18 -26 -21 -42 -4 -16 -11 -29 -15 -29 -5 0 -7 -7 -4 -15 4 -9 0
-15 -10 -15 -9 0 -16 -6 -16 -14 0 -7 -16 -34 -35 -59 -19 -25 -35 -51 -35
-57 0 -6 -4 -8 -10 -5 -5 3 -10 1 -10 -5 0 -7 -42 -52 -92 -101 -51 -49 -122
-117 -157 -152 -35 -34 -68 -61 -73 -59 -5 1 -7 -2 -3 -8 3 -5 -1 -10 -9 -10
-9 0 -16 -4 -16 -8 0 -5 -19 -15 -42 -23 -48 -16 -262 -19 -338 -6 -26 5 -41
4 -35 -1 57 -50 346 -47 406 5 8 7 19 13 23 13 28 0 342 266 397 336 49 62 76
110 133 237 19 42 41 77 49 77 8 0 18 20 25 53 22 109 59 224 87 276 23 41 39
58 75 75 31 15 45 27 45 41 0 52 -68 16 -131 -70 l-36 -50 5 60 c3 44 12 72
31 100 15 21 24 45 22 52 -3 7 1 28 9 47 8 19 26 95 41 168 14 73 36 164 50
201 33 93 55 224 47 287 -6 50 -6 51 41 96 46 44 85 111 86 147 0 17 -3 17
-31 -4 -44 -31 -105 -31 -150 0 -19 13 -65 62 -104 109 -203 249 -326 339
-532 391 -153 38 -350 55 -492 40z m-179 -689 c296 -40 510 -57 648 -51 124 5
235 -21 270 -64 7 -8 18 -15 24 -15 6 0 31 -15 56 -34 59 -43 86 -100 99 -206
13 -113 22 -304 11 -265 l-8 30 -2 -35 c-2 -19 -3 -41 -3 -47 1 -16 -8 -16
-44 -2 -15 6 -72 19 -126 30 -186 36 -384 18 -452 -42 -32 -28 -34 -29 -47
-11 -42 58 -136 71 -201 27 -20 -14 -37 -21 -37 -16 0 6 -15 24 -32 40 -33 31
-100 56 -170 65 -21 2 -42 7 -47 10 -6 4 -51 10 -102 15 -82 8 -175 3 -266
-13 -27 -5 -33 -3 -33 11 -1 14 -4 12 -15 -7 -17 -30 -18 -26 -5 20 6 19 13
49 16 65 2 17 9 44 14 60 5 17 16 59 25 95 31 120 46 161 73 205 47 75 116
119 212 135 64 11 62 11 142 0z m-11 -620 c69 -16 145 -54 159 -79 35 -67 -35
-269 -121 -348 -37 -34 -73 -43 -170 -43 -72 0 -101 5 -154 26 -103 41 -127
89 -126 250 0 99 15 177 37 194 33 28 258 27 375 0z m979 -76 c66 -23 80 -45
80 -129 0 -136 -26 -228 -80 -287 -27 -30 -100 -49 -186 -49 -118 -1 -160 13
-216 72 -58 61 -78 121 -85 247 -5 87 -4 95 18 118 41 43 98 54 264 50 114 -2
163 -8 205 -22z"/>
<path d="M1120 2311 c-45 -14 -70 -35 -107 -89 -48 -69 -35 -84 32 -37 59 42
121 47 188 14 23 -11 68 -23 99 -26 75 -7 108 12 108 62 0 31 -3 35 -37 44
-21 6 -74 15 -118 21 -44 6 -93 13 -110 15 -16 2 -41 0 -55 -4z"/>
<path d="M1984 2257 c-98 -13 -124 -26 -124 -63 0 -47 77 -68 160 -44 127 38
172 32 237 -32 23 -23 46 -39 49 -35 4 3 -2 32 -12 63 -28 82 -74 117 -157
120 -34 2 -103 -3 -153 -9z"/>
<path d="M1101 1984 c-60 -16 -112 -55 -128 -96 -16 -40 -5 -41 32 -3 39 42
105 74 105 51 0 -8 -4 -17 -9 -20 -15 -10 -23 -80 -12 -108 6 -16 20 -28 38
-31 15 -3 52 -11 80 -17 36 -7 59 -8 71 -1 12 6 23 6 28 1 18 -18 37 9 42 59
2 28 8 54 13 57 5 2 21 -15 36 -38 23 -37 28 -40 31 -22 2 12 -11 42 -27 66
-71 105 -168 138 -300 102z m97 -78 c5 -25 -12 -39 -37 -31 -20 6 -28 34 -14
49 13 13 48 1 51 -18z"/>
<path d="M921 1842 c0 -7 -5 -10 -11 -7 -6 4 -10 -6 -10 -22 0 -25 1 -26 16
-11 9 8 14 24 11 34 -3 11 -5 13 -6 6z"/>
<path d="M1941 1919 c-40 -16 -82 -50 -112 -92 -43 -59 -36 -77 11 -28 l40 41
0 -46 c0 -25 8 -59 17 -75 20 -33 31 -34 150 -19 58 8 83 16 96 32 21 25 22
73 3 111 -16 30 -14 32 17 16 33 -17 68 -51 78 -76 10 -27 29 -31 29 -7 0 44
-73 117 -143 143 -35 13 -153 13 -186 0z m53 -65 c7 -19 -10 -44 -29 -44 -19
0 -36 25 -29 44 3 9 16 16 29 16 13 0 26 -7 29 -16z"/>
<path d="M1457 1427 c-11 -28 3 -46 50 -67 30 -13 67 -20 110 -20 58 0 68 3
94 29 31 32 36 46 18 57 -7 4 -19 -3 -29 -16 -17 -22 -21 -23 -110 -17 -77 6
-94 10 -109 28 -16 20 -18 20 -24 6z"/>
<path d="M1186 1312 c-3 -6 0 -23 8 -39 8 -15 21 -45 30 -66 46 -109 259 -255
318 -218 10 6 32 10 50 10 31 -2 31 -2 6 -6 -16 -2 -28 -9 -28 -15 0 -22 126
-2 195 30 88 41 138 85 182 157 20 33 41 62 45 63 4 2 8 7 8 11 0 10 -321 7
-378 -4 -41 -7 -142 8 -167 25 -5 4 -48 11 -95 14 -88 7 -151 22 -161 39 -4 6
-9 5 -13 -1z m370 -106 c173 -11 208 -16 195 -29 -27 -27 -357 4 -389 36 -11
12 -4 13 41 6 30 -4 99 -10 153 -13z m-19 -202 c-3 -3 -12 -4 -19 -1 -8 3 -5
6 6 6 11 1 17 -2 13 -5z"/>
<path d="M1750 940 c-41 -21 -86 -41 -100 -43 -17 -3 -13 -4 13 -6 41 -1 77
14 140 60 53 39 38 35 -53 -11z"/>
</g>
</svg>
